<mxfile host="Electron" modified="2023-10-25T12:31:52.124Z" agent="Mozilla/5.0 (Windows NT 10.0; Win64; x64) AppleWebKit/537.36 (KHTML, like Gecko) draw.io/22.0.3 Chrome/114.0.5735.289 Electron/25.8.4 Safari/537.36" etag="Dl80yoNVp9W-YEj2Wfim" version="22.0.3" type="device">
  <diagram id="C5RBs43oDa-KdzZeNtuy" name="Page-1">
    <mxGraphModel dx="780" dy="550" grid="1" gridSize="10" guides="1" tooltips="1" connect="1" arrows="1" fold="1" page="1" pageScale="1" pageWidth="827" pageHeight="1169" math="0" shadow="0">
      <root>
        <mxCell id="WIyWlLk6GJQsqaUBKTNV-0" />
        <mxCell id="WIyWlLk6GJQsqaUBKTNV-1" parent="WIyWlLk6GJQsqaUBKTNV-0" />
        <mxCell id="kmyK7F4ayz9XbHlayi7A-14" value="&amp;lt; producess" style="text;html=1;strokeColor=none;fillColor=none;align=center;verticalAlign=middle;whiteSpace=wrap;rounded=0;" parent="WIyWlLk6GJQsqaUBKTNV-1" vertex="1">
          <mxGeometry x="300" y="140" width="90" height="30" as="geometry" />
        </mxCell>
        <mxCell id="kmyK7F4ayz9XbHlayi7A-15" value="&amp;lt; appears on" style="text;html=1;strokeColor=none;fillColor=none;align=center;verticalAlign=middle;whiteSpace=wrap;rounded=0;" parent="WIyWlLk6GJQsqaUBKTNV-1" vertex="1">
          <mxGeometry x="260" y="320" width="90" height="30" as="geometry" />
        </mxCell>
        <mxCell id="kmyK7F4ayz9XbHlayi7A-17" value="performs on &amp;gt;" style="text;html=1;strokeColor=none;fillColor=none;align=center;verticalAlign=middle;whiteSpace=wrap;rounded=0;" parent="WIyWlLk6GJQsqaUBKTNV-1" vertex="1">
          <mxGeometry x="550" y="250" width="90" height="30" as="geometry" />
        </mxCell>
        <mxCell id="kmyK7F4ayz9XbHlayi7A-18" value="composes &amp;gt;" style="text;html=1;strokeColor=none;fillColor=none;align=center;verticalAlign=middle;whiteSpace=wrap;rounded=0;" parent="WIyWlLk6GJQsqaUBKTNV-1" vertex="1">
          <mxGeometry x="400" y="240" width="90" height="30" as="geometry" />
        </mxCell>
        <mxCell id="kmyK7F4ayz9XbHlayi7A-19" value="1..*" style="text;html=1;strokeColor=none;fillColor=none;align=center;verticalAlign=middle;whiteSpace=wrap;rounded=0;" parent="WIyWlLk6GJQsqaUBKTNV-1" vertex="1">
          <mxGeometry x="420" y="200" width="90" height="30" as="geometry" />
        </mxCell>
        <mxCell id="kmyK7F4ayz9XbHlayi7A-20" value="0..*" style="text;html=1;strokeColor=none;fillColor=none;align=center;verticalAlign=middle;whiteSpace=wrap;rounded=0;" parent="WIyWlLk6GJQsqaUBKTNV-1" vertex="1">
          <mxGeometry x="420" y="290" width="90" height="30" as="geometry" />
        </mxCell>
        <mxCell id="kmyK7F4ayz9XbHlayi7A-22" value="0..*" style="text;html=1;strokeColor=none;fillColor=none;align=center;verticalAlign=middle;whiteSpace=wrap;rounded=0;" parent="WIyWlLk6GJQsqaUBKTNV-1" vertex="1">
          <mxGeometry x="530" y="290" width="90" height="30" as="geometry" />
        </mxCell>
        <mxCell id="kmyK7F4ayz9XbHlayi7A-23" value="1..*" style="text;html=1;strokeColor=none;fillColor=none;align=center;verticalAlign=middle;whiteSpace=wrap;rounded=0;" parent="WIyWlLk6GJQsqaUBKTNV-1" vertex="1">
          <mxGeometry x="520" y="200" width="90" height="30" as="geometry" />
        </mxCell>
        <mxCell id="kmyK7F4ayz9XbHlayi7A-24" value="1..1" style="text;html=1;strokeColor=none;fillColor=none;align=center;verticalAlign=middle;whiteSpace=wrap;rounded=0;" parent="WIyWlLk6GJQsqaUBKTNV-1" vertex="1">
          <mxGeometry x="390" y="140" width="90" height="30" as="geometry" />
        </mxCell>
        <mxCell id="kmyK7F4ayz9XbHlayi7A-25" value="0..*" style="text;html=1;strokeColor=none;fillColor=none;align=center;verticalAlign=middle;whiteSpace=wrap;rounded=0;" parent="WIyWlLk6GJQsqaUBKTNV-1" vertex="1">
          <mxGeometry x="210" y="140" width="90" height="30" as="geometry" />
        </mxCell>
        <mxCell id="kmyK7F4ayz9XbHlayi7A-26" value="1..*" style="text;html=1;strokeColor=none;fillColor=none;align=center;verticalAlign=middle;whiteSpace=wrap;rounded=0;" parent="WIyWlLk6GJQsqaUBKTNV-1" vertex="1">
          <mxGeometry x="390" y="350" width="90" height="30" as="geometry" />
        </mxCell>
        <mxCell id="kmyK7F4ayz9XbHlayi7A-27" value="1..1" style="text;html=1;strokeColor=none;fillColor=none;align=center;verticalAlign=middle;whiteSpace=wrap;rounded=0;" parent="WIyWlLk6GJQsqaUBKTNV-1" vertex="1">
          <mxGeometry x="150" y="200" width="90" height="30" as="geometry" />
        </mxCell>
        <mxCell id="j1UoJZBAwQ5iss6wI1F5-0" value="Album" style="rounded=0;whiteSpace=wrap;html=1;" vertex="1" parent="WIyWlLk6GJQsqaUBKTNV-1">
          <mxGeometry x="115" y="140" width="120" height="60" as="geometry" />
        </mxCell>
        <mxCell id="j1UoJZBAwQ5iss6wI1F5-2" style="edgeStyle=orthogonalEdgeStyle;rounded=0;orthogonalLoop=1;jettySize=auto;html=1;exitX=0;exitY=0.5;exitDx=0;exitDy=0;entryX=1;entryY=0.5;entryDx=0;entryDy=0;endArrow=none;endFill=0;" edge="1" parent="WIyWlLk6GJQsqaUBKTNV-1" source="j1UoJZBAwQ5iss6wI1F5-1" target="j1UoJZBAwQ5iss6wI1F5-0">
          <mxGeometry relative="1" as="geometry" />
        </mxCell>
        <mxCell id="j1UoJZBAwQ5iss6wI1F5-4" style="edgeStyle=orthogonalEdgeStyle;rounded=0;orthogonalLoop=1;jettySize=auto;html=1;exitX=0.25;exitY=1;exitDx=0;exitDy=0;entryX=0.25;entryY=0;entryDx=0;entryDy=0;endArrow=none;endFill=0;" edge="1" parent="WIyWlLk6GJQsqaUBKTNV-1" source="j1UoJZBAwQ5iss6wI1F5-1" target="j1UoJZBAwQ5iss6wI1F5-3">
          <mxGeometry relative="1" as="geometry" />
        </mxCell>
        <mxCell id="j1UoJZBAwQ5iss6wI1F5-5" style="edgeStyle=orthogonalEdgeStyle;rounded=0;orthogonalLoop=1;jettySize=auto;html=1;exitX=0.75;exitY=1;exitDx=0;exitDy=0;entryX=0.75;entryY=0;entryDx=0;entryDy=0;endArrow=none;endFill=0;" edge="1" parent="WIyWlLk6GJQsqaUBKTNV-1" source="j1UoJZBAwQ5iss6wI1F5-1" target="j1UoJZBAwQ5iss6wI1F5-3">
          <mxGeometry relative="1" as="geometry" />
        </mxCell>
        <mxCell id="j1UoJZBAwQ5iss6wI1F5-1" value="Musician" style="rounded=0;whiteSpace=wrap;html=1;" vertex="1" parent="WIyWlLk6GJQsqaUBKTNV-1">
          <mxGeometry x="459" y="140" width="120" height="60" as="geometry" />
        </mxCell>
        <mxCell id="j1UoJZBAwQ5iss6wI1F5-9" style="edgeStyle=orthogonalEdgeStyle;rounded=0;orthogonalLoop=1;jettySize=auto;html=1;exitX=0;exitY=0.5;exitDx=0;exitDy=0;entryX=0.5;entryY=1;entryDx=0;entryDy=0;endArrow=none;endFill=0;" edge="1" parent="WIyWlLk6GJQsqaUBKTNV-1" source="j1UoJZBAwQ5iss6wI1F5-3" target="j1UoJZBAwQ5iss6wI1F5-0">
          <mxGeometry relative="1" as="geometry" />
        </mxCell>
        <mxCell id="j1UoJZBAwQ5iss6wI1F5-3" value="Track" style="rounded=0;whiteSpace=wrap;html=1;" vertex="1" parent="WIyWlLk6GJQsqaUBKTNV-1">
          <mxGeometry x="459" y="320" width="120" height="60" as="geometry" />
        </mxCell>
      </root>
    </mxGraphModel>
  </diagram>
</mxfile>
